<svg xmlns="http://www.w3.org/2000/svg" width="40" height="40" viewBox="0 0 40 40"><defs><style>.a{fill:#fc634b;}</style></defs><g transform="translate(0)"><g transform="translate(0)"><path class="a" d="M38.828,0H34.063a1.171,1.171,0,0,0-1.172,1.172V2.344H23.3a3.495,3.495,0,0,0-6.6,0H7.109V1.172A1.171,1.171,0,0,0,5.938,0H1.172A1.171,1.171,0,0,0,0,1.172V5.859A1.171,1.171,0,0,0,1.172,7.031H5.938A1.171,1.171,0,0,0,7.109,5.859V4.672h4.813a15.287,15.287,0,0,0-7.069,12,3.505,3.505,0,1,0,2.339.053,12.86,12.86,0,0,1,9.7-11.609,3.486,3.486,0,0,0,6.223,0,12.86,12.86,0,0,1,9.7,11.609,3.526,3.526,0,1,0,2.339-.053A15.259,15.259,0,0,0,28.078,4.688h4.813V5.859a1.171,1.171,0,0,0,1.172,1.172h4.766A1.171,1.171,0,0,0,40,5.859V1.172A1.171,1.171,0,0,0,38.828,0Z"/></g><g transform="translate(11.976 35.234)"><path class="a" d="M169.291,454.312A4.766,4.766,0,0,0,164.833,451H157.8a4.766,4.766,0,0,0-4.457,3.312,1.155,1.155,0,0,0,1.14,1.454h13.666A1.155,1.155,0,0,0,169.291,454.312Z" transform="translate(-153.294 -451)"/></g><g transform="translate(9.453 10.27)"><path class="a" d="M141.9,145.226l-9.178-13.767v11.118a3.516,3.516,0,1,1-2.344,0V131.459L121.2,145.226a1.172,1.172,0,0,0,.146,1.479,14.8,14.8,0,0,1,4.057,7.9,6.974,6.974,0,0,1,2.631-.521h7.031a6.979,6.979,0,0,1,2.631.521,14.8,14.8,0,0,1,4.057-7.9A1.172,1.172,0,0,0,141.9,145.226Z" transform="translate(-121 -131.459)"/></g><g transform="translate(18.828 23.516)"><path class="a" d="M242.172,301a1.172,1.172,0,1,0,1.172,1.172A1.173,1.173,0,0,0,242.172,301Z" transform="translate(-241 -301)"/></g></g></svg>