<svg xmlns="http://www.w3.org/2000/svg" width="40" height="40" viewBox="0 0 40 40"><defs><style>.a{fill:#fc634b;}</style></defs><path class="a" d="M-597.45-711.758a4.237,4.237,0,0,0,.478-1.978A4.265,4.265,0,0,0-601.236-718a4.265,4.265,0,0,0-4.264,4.264,4.265,4.265,0,0,0,4.264,4.264,4.226,4.226,0,0,0,1.977-.478l1.808,1.808a1.275,1.275,0,0,0,.906.375,1.268,1.268,0,0,0,.9-.375,1.279,1.279,0,0,0,0-1.81Zm-5.492-1.978a1.711,1.711,0,0,1,1.705-1.706,1.711,1.711,0,0,1,1.705,1.706,1.71,1.71,0,0,1-1.705,1.706A1.71,1.71,0,0,1-602.942-713.736Z" transform="translate(635.267 718)"/><path class="a" d="M-986.515-707.767H-965.2a2.988,2.988,0,0,0,2.985-2.984v-4.264A2.988,2.988,0,0,0-965.2-718h-21.319a2.988,2.988,0,0,0-2.985,2.985v4.264A2.988,2.988,0,0,0-986.515-707.767Z" transform="translate(989.5 718)"/><path class="a" d="M-986.515-535.394h12.792a2.988,2.988,0,0,0,2.985-2.985v-5.969a2.988,2.988,0,0,0-2.985-2.985h-12.792a2.988,2.988,0,0,0-2.985,2.985v5.969A2.988,2.988,0,0,0-986.515-535.394Z" transform="translate(989.5 560.538)"/><path class="a" d="M-986.515-343.394h12.792a2.988,2.988,0,0,0,2.985-2.985v-5.969a2.988,2.988,0,0,0-2.985-2.985h-12.792a2.988,2.988,0,0,0-2.985,2.985v5.969A2.988,2.988,0,0,0-986.515-343.394Z" transform="translate(989.5 383.394)"/><path class="a" d="M-696.391-547.333h-12.791a3,3,0,0,0-2.985,2.985v21.319a3,3,0,0,0,2.985,2.985h12.791a3,3,0,0,0,2.985-2.985v-21.319A3,3,0,0,0-696.391-547.333Zm-13.218,2.985a.422.422,0,0,1,.427-.426h12.791a.422.422,0,0,1,.426.426v10.438l-.256-.307a3.1,3.1,0,0,0-4.6,0l-1.74,2.115a.5.5,0,0,1-.324.154.442.442,0,0,1-.307-.119l-.887-.887a3.006,3.006,0,0,0-4.23,0l-1.3,1.3Z" transform="translate(733.406 560.045)"/></svg>