<svg id="Layer_1" data-name="Layer 1" xmlns="http://www.w3.org/2000/svg" viewBox="0 0 20 20"><defs><style>.cls-1{fill:#fcc529;}</style></defs><path id="SocialFooter_-_1.Facebook" data-name="SocialFooter - 1.Facebook" class="cls-1" d="M5.27,10.65h2.2v9A.32.32,0,0,0,7.8,20h3.67a.32.32,0,0,0,.32-.32h0v-9h2.52a.32.32,0,0,0,.32-.29l.42-3.34A.33.33,0,0,0,15,6.81a.32.32,0,0,0-.24-.11H11.79V4.64c0-.63.34-.94,1-.94h1.9A.32.32,0,0,0,15,3.37V.32A.32.32,0,0,0,14.73,0H12A5,5,0,0,0,8.72,1.23,3.48,3.48,0,0,0,7.57,4.29V6.72H5.27A.33.33,0,0,0,5,7.05H5v3.28a.32.32,0,0,0,.32.32Z"/></svg>