<svg id="Layer_1" data-name="Layer 1" xmlns="http://www.w3.org/2000/svg" viewBox="0 0 20 20"><defs><style>.cls-1{fill:#fcc529;}</style></defs><g id="SocialFooter_-_2.LinkedIn" data-name="SocialFooter - 2.LinkedIn"><path id="Path_21" data-name="Path 21" class="cls-1" d="M2.41.17A2.5,2.5,0,0,1,4.83,2.59,2.42,2.42,0,0,1,0,2.59,2.38,2.38,0,0,1,2.33.17h.09"/><path id="Path_22" data-name="Path 22" class="cls-1" d="M3.76,19.82H1a.69.69,0,0,1-.7-.69V7.07a.66.66,0,0,1,.62-.69H3.76a.69.69,0,0,1,.69.69h0v12.1a.69.69,0,0,1-.69.65"/><path id="Path_23" data-name="Path 23" class="cls-1" d="M20,10.59A4.42,4.42,0,0,0,15.67,6h-.88a4.15,4.15,0,0,0-3.45,1.73L11,8.11V6.72a.44.44,0,0,0-.35-.34H7.21a.37.37,0,0,0-.35.31V19.55c0,.14.21.27.35.27H11c.13,0,.34-.13.34-.27V12.08a2.26,2.26,0,1,1,4.51-.25v7.66a.47.47,0,0,0,.35.34h3.45a.49.49,0,0,0,.34-.34v-8.9Z"/></g></svg>