<svg id="Layer_1" data-name="Layer 1" xmlns="http://www.w3.org/2000/svg" viewBox="0 0 20 20"><defs><style>.cls-1{fill:#fcc529;}</style></defs><path id="instagramfour" class="cls-1" d="M6.25,10A3.74,3.74,0,0,1,10,6.25h0A3.74,3.74,0,0,1,13.75,10v0A3.74,3.74,0,0,1,10,13.75h0A3.74,3.74,0,0,1,6.25,10ZM20,8.75V17.5A2.5,2.5,0,0,1,17.5,20H2.5a2.46,2.46,0,0,1-1.77-.73A2.42,2.42,0,0,1,0,17.5V2.5A2.42,2.42,0,0,1,.73.73,2.42,2.42,0,0,1,2.5,0h15a2.46,2.46,0,0,1,1.77.73A2.42,2.42,0,0,1,20,2.5V6.25H15a6.47,6.47,0,0,0-2.19-1.83,6.25,6.25,0,0,0-5.62,0A6.47,6.47,0,0,0,5,6.25H0v2.5H3.87A6.54,6.54,0,0,0,3.75,10a6.05,6.05,0,0,0,.84,3.13,6.25,6.25,0,0,0,10.82,0A6.05,6.05,0,0,0,16.25,10a6.54,6.54,0,0,0-.12-1.25Z"/></svg>